<svg width="56" height="62" viewBox="0 0 56 62" fill="none" xmlns="http://www.w3.org/2000/svg">
<path d="M27.5692 2.66832C24.9529 8.12105 23.3889 14.7064 23.5052 19.838C23.5343 21.2566 23.575 21.5602 23.9296 23.0022C24.325 24.6194 25.5285 28.0054 26.3889 29.9086C26.4878 30.1305 26.5692 30.329 26.5692 30.3465C26.5692 30.3698 26.4064 30.0838 26.2029 29.716C24.6913 26.9604 23.0575 24.7186 21.3308 23.0314C19.3773 21.1224 16.6913 19.5111 13.0227 18.034C11.7262 17.5086 9.73197 16.8314 9.67383 16.8898C9.5808 16.9832 10.9703 19.9022 11.8075 21.3676C12.4355 22.4651 13.575 24.1581 14.2785 25.0455C16.2959 27.5734 19.1796 29.7685 22.8017 31.5199C23.3889 31.806 24.232 32.1855 24.6796 32.3664C25.1273 32.5533 25.5459 32.7284 25.6099 32.7576C25.7669 32.8335 25.7203 32.8218 24.1855 32.4248C19.6215 31.2514 16.6099 30.977 13.7262 31.4732C12.3599 31.7067 10.6215 32.2146 9.15639 32.8043L8.45871 33.0845L8.05173 32.3372C7.8308 31.9227 7.63313 31.5841 7.61569 31.5841C7.59825 31.5841 5.91801 34.6725 3.88313 38.4438L0.173828 45.2977V46.0742C0.173828 47.0316 0.272665 47.5162 0.586619 48.1642C1.06336 49.1216 2.05755 49.8922 3.11569 50.1199C3.70871 50.2484 11.5169 50.2484 12.1215 50.1199C13.1622 49.9039 14.1564 49.1274 14.6389 48.1642C14.9587 47.522 15.0575 47.0374 15.0575 46.0742V45.2977L12.0866 39.8099C10.4587 36.7917 9.10406 34.2813 9.08662 34.2346C9.06336 34.1704 9.15057 34.1879 9.4529 34.3047C12.3366 35.4139 15.0634 35.8984 17.5459 35.735C18.732 35.6533 20.2727 35.4489 21.5692 35.1979C22.3308 35.0461 24.4645 34.5732 24.8541 34.4681C24.918 34.4506 24.7262 34.5674 24.4296 34.7308C22.3017 35.8809 20.7087 37.4105 19.6215 39.3487C19.3424 39.845 18.8017 41.0885 18.8482 41.1293C18.8773 41.1585 19.9355 40.7791 20.7843 40.4346C23.3948 39.3662 25.6331 37.86 26.8134 36.383L27.1506 35.9568V44.0133V52.0698L24.1157 52.0873L21.075 52.1049L20.7843 52.2508C20.4122 52.4318 20.0634 52.7821 19.8831 53.1557C19.7378 53.4418 19.7378 53.4768 19.7203 55.0939L19.7029 56.7461H28.0808H36.4587L36.4413 55.0939C36.4238 53.4768 36.4238 53.4418 36.2785 53.1557C36.0982 52.7821 35.7494 52.4318 35.3773 52.2508L35.0866 52.1049L32.0517 52.0873L29.011 52.0698V44.0133V35.9568L29.3541 36.383C29.7494 36.8792 30.4587 37.5798 30.9587 37.9593C32.4762 39.1152 34.6389 40.2361 36.7552 40.9542L37.3134 41.1468L37.2668 40.9951C36.8482 39.6114 35.8308 38.0235 34.6157 36.8384C33.6971 35.9452 32.8715 35.3438 31.7262 34.7308C31.4296 34.5732 31.2087 34.4448 31.2262 34.4448C31.2494 34.4448 31.6971 34.5499 32.2203 34.6783C34.511 35.2329 36.8075 35.6124 38.6215 35.735C40.3075 35.8459 41.9413 35.6766 43.8657 35.2037C44.7203 34.9936 46.0227 34.5791 46.7959 34.2755C47.0285 34.1762 47.0982 34.1704 47.075 34.2288C47.0575 34.2755 45.7087 36.7858 44.075 39.8041L41.1041 45.2977V46.0742C41.1041 47.0316 41.2029 47.5162 41.5168 48.1642C41.9936 49.1216 42.9878 49.8922 44.0459 50.1199C44.6389 50.2484 52.4471 50.2484 53.0517 50.1199C54.0924 49.9039 55.0866 49.1274 55.5692 48.1642C55.8889 47.522 55.9878 47.0374 55.9878 46.0742V45.2977L52.2843 38.4438C50.2436 34.6725 48.5634 31.5841 48.5459 31.5841C48.5285 31.5841 48.3308 31.9227 48.1099 32.3372L47.7029 33.0904L47.1506 32.8568C46.3424 32.5182 44.8541 32.0278 43.9355 31.7943C40.9006 31.0237 38.4296 31.0412 34.4471 31.8527C33.668 32.0162 31.5808 32.5182 30.5808 32.7868C30.3075 32.8627 30.4936 32.7634 30.9878 32.5766C34.7727 31.1229 38.6099 28.6593 40.8424 26.2482C42.0168 24.9813 43.3482 23.1307 44.3541 21.3676C45.1622 19.9606 46.5866 16.9832 46.4936 16.8956C46.4471 16.8489 45.2494 17.2284 44.0808 17.6662C41.5227 18.6237 39.0634 19.8497 37.2378 21.0757C34.4994 22.9205 32.168 25.6877 29.9587 29.716C29.5517 30.4574 29.4994 30.5158 29.7727 29.9086C30.6157 28.0404 31.8482 24.5902 32.232 23.0022C32.6273 21.3676 32.6448 21.2216 32.6389 19.2659C32.6389 17.9932 32.6099 17.2284 32.5401 16.5804C32.0808 12.4237 31.0692 8.5122 29.4413 4.56568C29.0227 3.5557 28.1389 1.69337 28.0808 1.69337C28.0575 1.69337 27.8308 2.13122 27.5692 2.66832ZM10.3541 40.5163L13.0692 45.5371H7.61569H2.1622L4.87732 40.5163C6.36569 37.7549 7.59825 35.4956 7.61569 35.4956C7.63313 35.4956 8.86569 37.7549 10.3541 40.5163ZM51.2843 40.5163L53.9994 45.5371H48.5459H43.0924L45.8075 40.5163C47.2959 37.7549 48.5285 35.4956 48.5459 35.4956C48.5634 35.4956 49.7959 37.7549 51.2843 40.5163Z" fill="#B6AF9F"/>
</svg>
