<svg width="251" height="251" viewBox="0 0 251 251" fill="none" xmlns="http://www.w3.org/2000/svg">
<path d="M126.702 2.55646L2.56337 123.694L123.708 247.839L247.846 126.702L126.702 2.55646Z" fill="white"/>
<path d="M123.67 250.4L0 123.66L126.74 0L250.41 126.73L123.67 250.4ZM5.12 123.73L123.73 245.29L245.29 126.68L126.67 5.11L5.12 123.73Z" fill="black"/>
<mask id="mask0_5824_1643" style="mask-type:luminance" maskUnits="userSpaceOnUse" x="17" y="17" width="216" height="216">
<path d="M126.516 17.7437L17.7436 123.887L123.894 232.667L232.667 126.524L126.516 17.7437Z" fill="white"/>
</mask>
<g mask="url(#mask0_5824_1643)">
<path d="M232.66 17.74H17.74V232.66H232.66V17.74Z" fill="url(#paint0_linear_5824_1643)"/>
</g>
<path d="M167.99 172.37V110.81H155.63V109.62H152.34V110.81V110.93V143.43H124.9V127.52C124.9 127.52 123.34 127.55 121.2 127.95C122.79 125.15 123.58 121.92 123.58 118.27C123.58 114.57 122.69 111.43 120.9 108.86C119.11 106.29 116.89 104.39 114.22 103.17C111.55 101.95 108.67 100.86 105.56 99.92C102.46 98.98 99.57 98.24 96.9 97.71C94.23 97.18 92.01 96.41 90.22 95.4C88.43 94.4 87.54 93.14 87.54 91.64C87.54 89.76 88.32 88.25 89.89 87.12C91.46 85.99 93.62 85.43 96.38 85.43C103.59 85.43 109.61 87.6 114.56 92.18L121.97 82.24C115.63 76.41 107.57 73.58 97.6 73.58C90.39 73.58 84.62 75.41 80.29 79.08C75.96 82.75 73.8 87.28 73.8 92.68C73.8 96.38 74.69 99.52 76.48 102.09C78.27 104.66 80.49 106.54 83.16 107.74C85.83 108.93 88.73 109.98 91.86 110.89C95 111.8 97.9 112.51 100.56 113.01C103.23 113.51 105.45 114.31 107.24 115.41C109.03 116.51 109.92 117.9 109.92 119.6C109.92 121.54 108.98 123.19 107.1 124.54C105.22 125.89 102.52 126.56 99.01 126.56C91.17 126.56 84.52 123.71 79.06 118L71.72 128.44C78.37 135.09 87.27 138.41 98.44 138.41C102.56 138.41 106.19 137.94 109.33 136.99V172.47V174.51V175.28H124.71H124.89H125.99V172.39H124.89V149.42H126.07H152.33V172.47V174.51V175.28H162.73H167.98H169.08V172.39H167.99V172.37Z" fill="black"/>
<path d="M155.64 109.61V134.26H126V114.85C126 114.83 126 114.81 126 114.8C126 114.79 126 114.77 126 114.76C126 112.9 125.77 111.18 125.31 109.61C124.86 108.07 124.2 106.66 123.32 105.39C121.53 102.82 119.31 100.92 116.64 99.7C113.97 98.48 111.09 97.39 107.98 96.45C104.88 95.51 101.99 94.77 99.33 94.24C96.66 93.71 94.44 92.94 92.65 91.93C90.86 90.93 89.97 89.67 89.97 88.17C89.97 86.29 90.75 84.78 92.32 83.65C93.89 82.52 96.05 81.96 98.81 81.96C106.02 81.96 112.11 84.25 117.06 88.83L124.49 78.86C118.15 73.03 110 70.11 100.03 70.11C92.82 70.11 87.05 71.94 82.72 75.61C78.39 79.28 76.23 83.81 76.23 89.21C76.23 92.91 77.12 96.05 78.91 98.62C80.7 101.19 82.92 103.07 85.59 104.27C88.25 105.46 91.16 106.51 94.29 107.42C97.43 108.33 100.33 109.04 102.99 109.54C105.65 110.04 107.88 110.84 109.67 111.94C111.46 113.04 112.35 114.43 112.35 116.13C112.35 118.07 111.41 119.72 109.53 121.07C107.65 122.42 104.95 123.09 101.44 123.09C93.6 123.09 86.95 120.24 81.49 114.53L74.15 124.97C80.8 131.62 89.7 134.94 100.87 134.94C105.38 134.94 109.3 134.37 112.63 133.24V172.37H125.99V145.93H155.63V172.37H169.08V109.62H155.64V109.61Z" fill="white"/>
<defs>
<linearGradient id="paint0_linear_5824_1643" x1="17.7597" y1="125.219" x2="232.688" y2="125.219" gradientUnits="userSpaceOnUse">
<stop stop-color="#8C0507"/>
<stop offset="0.252" stop-color="#8C0507"/>
<stop offset="0.4326" stop-color="#CF2026"/>
<stop offset="0.437" stop-color="#CB1F26"/>
<stop offset="0.4814" stop-color="#B01A1F"/>
<stop offset="0.5257" stop-color="#9A1518"/>
<stop offset="0.5695" stop-color="#8B1012"/>
<stop offset="0.6125" stop-color="#820C0E"/>
<stop offset="0.6538" stop-color="#7F0B0D"/>
<stop offset="0.7155" stop-color="#820C0E"/>
<stop offset="0.7835" stop-color="#8C1013"/>
<stop offset="0.8545" stop-color="#9C1519"/>
<stop offset="0.9272" stop-color="#B21B20"/>
<stop offset="1" stop-color="#CF2027"/>
</linearGradient>
</defs>
</svg>
