<svg xmlns="http://www.w3.org/2000/svg" width="40" height="40" viewBox="0 0 40 40" fill="none">
  <path d="M13.4272 20C13.4272 19.8364 13.4817 19.7273 13.5908 19.6182L19.0454 14.1636C19.2636 13.9455 19.5908 13.9455 19.809 14.1636C20.0272 14.3818 20.0272 14.7091 19.809 14.9273L14.7363 20L19.809 25.0727C20.0272 25.2909 20.0272 25.6182 19.809 25.8364C19.5908 26.0545 19.2636 26.0545 19.0454 25.8364L13.5908 20.3818C13.4817 20.2727 13.4272 20.1636 13.4272 20Z" fill="#929292"/>
  <path d="M20.4545 20C20.4545 19.8364 20.5091 19.7273 20.6182 19.6182L26.0727 14.1636C26.2909 13.9455 26.6182 13.9455 26.8364 14.1636C27.0545 14.3818 27.0545 14.7091 26.8364 14.9273L21.7636 20L26.8364 25.0727C27.0545 25.2909 27.0545 25.6182 26.8364 25.8364C26.6182 26.0545 26.2909 26.0545 26.0727 25.8364L20.6182 20.3818C20.5091 20.2727 20.4545 20.1636 20.4545 20Z" fill="#929292"/>
</svg>