<svg xmlns="http://www.w3.org/2000/svg" width="40" height="40" viewBox="0 0 40 40" fill="none">
  <path d="M26.5728 20C26.5728 20.1636 26.5183 20.2727 26.4092 20.3818L20.9546 25.8364C20.7364 26.0545 20.4092 26.0545 20.191 25.8364C19.9728 25.6182 19.9728 25.2909 20.191 25.0727L25.2637 20L20.191 14.9273C19.9728 14.7091 19.9728 14.3818 20.191 14.1636C20.4092 13.9455 20.7364 13.9455 20.9546 14.1636L26.4092 19.6182C26.5183 19.7273 26.5728 19.8364 26.5728 20Z" fill="#929292"/>
  <path d="M19.5455 20C19.5455 20.1636 19.4909 20.2727 19.3818 20.3818L13.9273 25.8364C13.7091 26.0545 13.3818 26.0545 13.1636 25.8364C12.9455 25.6182 12.9455 25.2909 13.1636 25.0727L18.2364 20L13.1636 14.9273C12.9455 14.7091 12.9455 14.3818 13.1636 14.1636C13.3818 13.9455 13.7091 13.9455 13.9273 14.1636L19.3818 19.6182C19.4909 19.7273 19.5455 19.8364 19.5455 20Z" fill="#929292"/>
</svg>